<svg width="90" height="90" viewBox="0 0 120 120" fill="none"
                                                    xmlns="http://www.w3.org/2000/svg">
                                                    <path
                                                        d="M91.3905 13.3239C68.3405 13.7539 52.2838 2.10726 41.1772 2.31726C30.0705 2.52726 6.85718 9.35059 7.81384 60.4506C8.77051 111.551 40.2938 118.464 52.5138 118.237C109.724 117.167 132.217 12.5606 91.3905 13.3239Z"
                                                        fill="#EFEFEF" />
                                                    <path
                                                        d="M59.3092 96.9036C78.179 96.9036 93.4759 81.6067 93.4759 62.737C93.4759 43.8672 78.179 28.5703 59.3092 28.5703C40.4395 28.5703 25.1426 43.8672 25.1426 62.737C25.1426 81.6067 40.4395 96.9036 59.3092 96.9036Z"
                                                        fill="#FF6B6B" />
                                                    <path
                                                        d="M29.3333 63.3327C29.3333 45.616 42.82 31.0527 60.0833 29.3393C58.96 29.226 57.82 29.166 56.6667 29.166C37.7967 29.166 22.5 44.4627 22.5 63.3327C22.5 82.2027 37.7967 97.4994 56.6667 97.4994C57.82 97.4994 58.96 97.4394 60.0833 97.326C42.82 95.6127 29.3333 81.0494 29.3333 63.3327Z"
                                                        fill="#FF001F" />
                                                    <path
                                                        d="M95.9629 100.166L98.3199 97.809L103.034 102.523L100.677 104.88L95.9629 100.166Z"
                                                        fill="#A4AFC1" />
                                                    <path
                                                        d="M96.5547 88.9434L101.269 84.2293L103.626 86.5863L98.9117 91.3004L96.5547 88.9434Z"
                                                        fill="#A4AFC1" />
                                                    <path
                                                        d="M83.0039 102.496L87.718 97.7821L90.075 100.139L85.3609 104.853L83.0039 102.496Z"
                                                        fill="#A4AFC1" />
                                                    <path
                                                        d="M90 23.3906C87.2433 23.3906 85 21.1473 85 18.3906C85 15.634 87.2433 13.3906 90 13.3906C92.7567 13.3906 95 15.634 95 18.3906C95 21.1473 92.7567 23.3906 90 23.3906ZM90 16.724C89.08 16.724 88.3333 17.474 88.3333 18.3906C88.3333 19.3073 89.08 20.0573 90 20.0573C90.92 20.0573 91.6667 19.3073 91.6667 18.3906C91.6667 17.474 90.92 16.724 90 16.724Z"
                                                        fill="#A4AFC1" />
                                                    <path
                                                        d="M56.6667 99.9993C36.45 99.9993 20 83.5493 20 63.3327C20 43.116 36.45 26.666 56.6667 26.666C63.7 26.666 70.54 28.6727 76.4467 32.4627L73.7433 36.6693C68.6467 33.3993 62.74 31.666 56.6667 31.666C39.2067 31.666 25 45.8727 25 63.3327C25 80.7927 39.2067 94.9993 56.6667 94.9993C74.1267 94.9993 88.3333 80.7927 88.3333 63.3327C88.3333 62.2893 88.2833 61.256 88.1867 60.2393L93.1633 59.756C93.2767 60.936 93.3333 62.126 93.3333 63.3327C93.3333 83.5493 76.8833 99.9993 56.6667 99.9993Z"
                                                        fill="black" />
                                                    <path
                                                        d="M54.2452 67.8677H57.6652L58.1332 50.4077H53.7772L54.2452 67.8677ZM58.6732 73.0517C58.6732 71.5757 57.5212 70.4237 56.0812 70.4237C54.6052 70.4237 53.4532 71.5757 53.4532 73.0517C53.4532 74.5277 54.6052 75.6797 56.0812 75.6797C57.5212 75.6797 58.6732 74.5277 58.6732 73.0517Z"
                                                        fill="black" />
                                                </svg>