<svg width="120" height="120" xmlns="http://www.w3.org/2000/svg">

 <g>
  <title>background</title>
  <rect fill="none" id="canvas_background" height="402" width="582" y="-1" x="-1"/>
 </g>
 <g>
  <title>Layer 1</title>
  <path id="svg_1" fill="#EFEFEF" d="m38.4408,116.007c22.15,-6.397 40.6767,0.686 51.35,-2.397c10.6732,-3.083 31.3202,-15.6935 17.1402,-64.8002c-14.1802,-49.10664 -46.4135,-47.59997 -58.1568,-44.20997c-54.97669,15.87667 -49.56336,122.73717 -10.3334,111.40717z"/>
  <path id="svg_2" fill="#A4AFC1" d="m19.166,20.4063c-2.7567,0 -5,-2.2434 -5,-5c0,-2.7567 2.2433,-5.0001 5,-5.0001c2.7567,0 5,2.2434 5,5.0001c0,2.7566 -2.2433,5 -5,5zm0,-6.6667c-0.9167,0 -1.6667,0.7467 -1.6667,1.6667c0,0.92 0.75,1.6666 1.6667,1.6666c0.9167,0 1.6667,-0.7466 1.6667,-1.6666c0,-0.92 -0.75,-1.6667 -1.6667,-1.6667z"/>
  <path id="svg_3" fill="#A4AFC1" d="m89.9629,12.0391l2.357,-2.35706l4.7141,4.71406l-2.3571,2.357l-4.714,-4.714z"/>
  <path id="svg_4" fill="#A4AFC1" d="m103.51,25.5898l2.357,-2.357l4.714,4.7141l-2.357,2.357l-4.714,-4.7141z"/>
  <path id="svg_5" fill="#A4AFC1" d="m102.932,14.4121l4.714,-4.71403l2.357,2.35703l-4.714,4.714l-2.357,-2.357z"/>
  <path id="svg_6" fill="#F3F3F1" d="m90.8333,34.0664l0,26.7667c0,3.6666 -3,6.6666 -6.6666,6.6666l-56.6667,0c-2.7667,0 -5,-2.2333 -5,-5l0,-28.4333l31.3667,15.5333c1.7333,0.8667 3.8666,0.8667 5.6,0l31.3666,-15.5333z"/>
  <path id="svg_7" fill="#ff0000" d="m90.8333,30.832l0,3.2334l-31.3666,15.5333c-1.7334,0.8667 -3.8667,0.8667 -5.6,0l-31.3667,-15.5333l0,-3.2334c0,-2.7666 2.2333,-5 5,-5l58.3333,0c2.7667,0 5,2.2334 5,5z"/>
  <path id="svg_8" fill="#D5DBE1" d="m30,62.4997l0,-24.72l-7.5,-3.7133l0,28.4333c0,2.7667 2.2333,5 5,5l7.5,0c-2.7667,0 -5,-2.2333 -5,-5z"/>
  <path id="svg_9" fill="#ff0000" d="m30,32.4354l0,-1.6034c0,-2.7666 2.2333,-5 5,-5l-7.5,0c-2.7667,0 -5,2.2334 -5,5l0,3.2334l31.3667,15.5333c1.7333,0.8667 3.8666,0.8667 5.6,0l0.95,-2.1l-30.4167,-15.0633z"/>
  <path id="svg_10" fill="#ff0000" d="m78.3327,97.4994c10.5854,0 19.1667,-8.5812 19.1667,-19.1667c0,-10.5855 -8.5813,-19.1667 -19.1667,-19.1667c-10.5855,0 -19.1667,8.5812 -19.1667,19.1667c0,10.5855 8.5812,19.1667 19.1667,19.1667z"/>
  <path id="svg_11" fill="#ff0000" d="m66.666,78.3327c0,-9.3 6.6267,-17.05 15.4167,-18.7934c-1.2133,-0.24 -2.4667,-0.3733 -3.75,-0.3733c-10.5867,0 -19.1667,8.58 -19.1667,19.1667c0,10.5867 8.58,19.1667 19.1667,19.1667c1.2833,0 2.5367,-0.13 3.75,-0.3734c-8.79,-1.7433 -15.4167,-9.4933 -15.4167,-18.7933z"/>
  <path id="svg_12" fill="black" d="m87.5007,80.8327l-9.1667,0c-1.38,0 -2.5,-1.12 -2.5,-2.5l0,-9.1667l5,0l0,6.6667l6.6667,0l0,5z"/>
  <path id="svg_13" fill="black" d="m78.3327,100.001c-11.9467,0 -21.6667,-9.7197 -21.6667,-21.6664c0,-11.9466 9.72,-21.6666 21.6667,-21.6666c11.9467,0 21.6666,9.72 21.6666,21.6666c0,11.9467 -9.7199,21.6664 -21.6666,21.6664zm0,-38.333c-9.19,0 -16.6667,7.4766 -16.6667,16.6666c0,9.19 7.4767,16.6667 16.6667,16.6667c9.19,0 16.6666,-7.4767 16.6666,-16.6667c0,-9.19 -7.4766,-16.6666 -16.6666,-16.6666z"/>
  <path id="svg_14" fill="black" d="m50.8333,70.0006l-23.3333,0c-4.1333,0 -7.5,-3.3633 -7.5,-7.5l0,-31.6666c0,-4.1367 3.3667,-7.5 7.5,-7.5l58.3333,0c4.1334,0 7.5,3.3633 7.5,7.5l0,20l-5,0l0,-20c0,-1.38 -1.1233,-2.5 -2.5,-2.5l-58.3333,0c-1.3767,0 -2.5,1.12 -2.5,2.5l0,31.6666c0,1.38 1.1233,2.5 2.5,2.5l23.3333,0l0,5z"/>
  <path id="svg_15" fill="black" d="m56.6706,52.7581c-1.3466,0 -2.6966,-0.3067 -3.9233,-0.9233l-31.3567,-15.5267l2.22,-4.48l31.3667,15.5334c1.0367,0.5166 2.3533,0.5166 3.37,0.0033l31.3767,-15.5367l2.22,4.48l-31.3667,15.5333c-1.22,0.61 -2.5633,0.9167 -3.9067,0.9167z"/>
 </g>
</svg>