<svg width="120" height="120" xmlns="http://www.w3.org/2000/svg">

 <g>
  <title>background</title>
  <rect fill="none" id="canvas_background" height="402" width="582" y="-1" x="-1"/>
 </g>
 <g>
  <title>Layer 1</title>
  <path id="svg_1" fill="#EFEFEF" d="m91.3905,13.3239c-23.05,0.43 -39.1067,-11.21664 -50.2133,-11.00664c-11.1067,0.21 -34.32002,7.03333 -33.36336,58.13334c0.95667,51.1004 32.47996,58.0134 44.69996,57.7864c57.2102,-1.07 79.7032,-105.6764 38.8767,-104.9131z"/>
  <path id="svg_2" fill="#ff0000" d="m56.6667,97.5013c18.8697,0 34.1666,-15.2969 34.1666,-34.1667c0,-18.8697 -15.2969,-34.1666 -34.1666,-34.1666c-18.8698,0 -34.1667,15.2969 -34.1667,34.1666c0,18.8698 15.2969,34.1667 34.1667,34.1667z"/>
  <path id="svg_3" fill="#7f0000" d="m29.3333,63.3346c0,-17.7166 13.4867,-32.28 30.75,-33.9933c-1.1233,-0.1133 -2.2633,-0.1733 -3.4166,-0.1733c-18.87,0 -34.1667,15.2966 -34.1667,34.1666c0,18.87 15.2967,34.1667 34.1667,34.1667c1.1533,0 2.2933,-0.06 3.4166,-0.1733c-17.2633,-1.7134 -30.75,-16.2767 -30.75,-33.9934z"/>
  <path id="svg_4" fill="#A4AFC1" d="m95.9629,100.166l2.357,-2.357l4.7141,4.714l-2.357,2.357l-4.7141,-4.714z"/>
  <path id="svg_5" fill="#A4AFC1" d="m96.5547,88.9434l4.7143,-4.7141l2.357,2.357l-4.7143,4.7141l-2.357,-2.357z"/>
  <path id="svg_6" fill="#A4AFC1" d="m83.0039,102.496l4.7141,-4.7139l2.357,2.3569l-4.7141,4.714l-2.357,-2.357z"/>
  <path id="svg_7" fill="#A4AFC1" d="m90,23.3906c-2.7567,0 -5,-2.2433 -5,-5c0,-2.7566 2.2433,-5 5,-5c2.7567,0 5,2.2434 5,5c0,2.7567 -2.2433,5 -5,5zm0,-6.6666c-0.92,0 -1.6667,0.75 -1.6667,1.6666c0,0.9167 0.7467,1.6667 1.6667,1.6667c0.92,0 1.6667,-0.75 1.6667,-1.6667c0,-0.9166 -0.7467,-1.6666 -1.6667,-1.6666z"/>
  <path id="svg_8" fill="black" d="m56.6667,99.9993c-20.2167,0 -36.6667,-16.45 -36.6667,-36.6666c0,-20.2167 16.45,-36.6667 36.6667,-36.6667c7.0333,0 13.8733,2.0067 19.78,5.7967l-2.7034,4.2066c-5.0966,-3.27 -11.0033,-5.0033 -17.0766,-5.0033c-17.46,0 -31.6667,14.2067 -31.6667,31.6667c0,17.46 14.2067,31.6666 31.6667,31.6666c17.46,0 31.6666,-14.2066 31.6666,-31.6666c0,-1.0434 -0.05,-2.0767 -0.1466,-3.0934l4.9766,-0.4833c0.1134,1.18 0.17,2.37 0.17,3.5767c0,20.2166 -16.45,36.6666 -36.6666,36.6666z"/>
  <path id="svg_9" fill="black" d="m60.8331,71.6658c-0.64,0 -1.28,-0.2434 -1.7667,-0.7334l-15,-15l3.5367,-3.5366l13.2333,13.2333l34.8967,-34.8967l3.5366,3.5367l-36.6666,36.6667c-0.49,0.4866 -1.13,0.73 -1.77,0.73z"/>
 </g>
</svg>